<?xml version="1.0" encoding="utf-8"?>
<!-- Generator: Adobe Illustrator 16.0.0, SVG Export Plug-In . SVG Version: 6.00 Build 0)  -->
<!DOCTYPE svg PUBLIC "-//W3C//DTD SVG 1.1//EN" "http://www.w3.org/Graphics/SVG/1.1/DTD/svg11.dtd">
<svg version="1.1" id="Layer_1" xmlns="http://www.w3.org/2000/svg" xmlns:xlink="http://www.w3.org/1999/xlink" x="0px" y="0px"
	 width="251.016px" height="30.776px" viewBox="0 0 251.016 30.776" enable-background="new 0 0 251.016 30.776"
	 xml:space="preserve">
<g enable-background="new    ">
	<g>
		<g>
			<g>
				<g>
					<path d="M165.697,19.028c0.117-0.791,0.054-1.392-0.19-1.802s-0.737-0.825-1.479-1.245c-2.012-0.928-3.438-1.86-4.277-2.798
						s-1.108-2.319-0.806-4.146c0.264-1.709,0.999-3.086,2.204-4.131c1.207-1.045,2.698-1.65,4.476-1.816L166.122,0h2.271
						l-0.513,3.164c1.543,0.283,2.71,1.023,3.501,2.22s1.045,2.717,0.762,4.562h-4.893c0.176-1.104,0.132-1.906-0.132-2.41
						c-0.264-0.502-0.679-0.754-1.245-0.754c-0.547,0-0.998,0.218-1.355,0.652c-0.355,0.435-0.583,0.979-0.681,1.633
						c-0.117,0.693-0.056,1.243,0.183,1.648c0.24,0.405,0.74,0.827,1.502,1.267c1.963,0.967,3.367,1.932,4.211,2.894
						c0.846,0.962,1.126,2.336,0.843,4.123c-0.293,1.758-1.013,3.143-2.161,4.152c-1.146,1.012-2.585,1.604-4.313,1.78l-0.469,2.944
						h-2.285l0.469-2.959c-1.699-0.215-3.047-0.898-4.043-2.051s-1.313-2.827-0.952-5.024h4.878c-0.205,1.27-0.132,2.156,0.22,2.659
						s0.898,0.754,1.641,0.754c0.566,0,1.035-0.207,1.406-0.623C165.336,20.218,165.58,19.683,165.697,19.028z"/>
					<path d="M186.994,17.388c-0.518,2.539-1.348,4.441-2.49,5.705c-1.143,1.266-2.642,1.897-4.497,1.897
						c-0.664,0-1.267-0.124-1.81-0.374c-0.541-0.248-0.998-0.612-1.369-1.091l-1.45,7.251h-4.893l4.38-21.943h4.585l-0.132,1.333
						c0.498-0.518,1.033-0.918,1.604-1.201c0.572-0.283,1.17-0.425,1.795-0.425c1.709,0,2.979,0.82,3.809,2.461
						s1.006,3.667,0.527,6.079L186.994,17.388z M182.175,17.08c0.283-1.465,0.352-2.619,0.205-3.464s-0.586-1.268-1.318-1.268
						c-0.43,0-0.843,0.135-1.237,0.402c-0.396,0.27-0.755,0.643-1.077,1.121l-1.348,6.753c0.156,0.195,0.384,0.337,0.681,0.425
						c0.299,0.088,0.677,0.132,1.136,0.132c0.723,0,1.323-0.324,1.802-0.974s0.845-1.59,1.099-2.82L182.175,17.08z"/>
					<path d="M195.137,24.99c-2.119,0-3.732-0.737-4.842-2.212c-1.107-1.475-1.486-3.306-1.135-5.493l0.088-0.557
						c0.4-2.51,1.301-4.505,2.703-5.983c1.4-1.48,3.22-2.215,5.456-2.205c1.943,0,3.401,0.649,4.372,1.948
						c0.973,1.299,1.287,3.042,0.945,5.229l-0.41,2.593h-8.276l-0.029,0.073c-0.049,0.84,0.127,1.516,0.527,2.029
						c0.4,0.512,1.025,0.769,1.875,0.769c0.811,0,1.499-0.075,2.065-0.228c0.566-0.15,1.274-0.402,2.124-0.754l0.659,3.018
						c-0.723,0.508-1.629,0.93-2.717,1.268C197.453,24.821,196.318,24.99,195.137,24.99z M196.807,12.349
						c-0.596,0-1.082,0.254-1.457,0.762c-0.377,0.508-0.662,1.187-0.857,2.036l0.044,0.073h3.486l0.073-0.381
						c0.127-0.84,0.093-1.465-0.103-1.875S197.402,12.349,196.807,12.349z"/>
					<path d="M210.633,24.99c-2.119,0-3.732-0.737-4.842-2.212c-1.107-1.475-1.486-3.306-1.135-5.493l0.088-0.557
						c0.4-2.51,1.301-4.505,2.703-5.983c1.4-1.48,3.22-2.215,5.456-2.205c1.943,0,3.401,0.649,4.372,1.948
						c0.973,1.299,1.287,3.042,0.945,5.229l-0.41,2.593h-8.276l-0.029,0.073c-0.049,0.84,0.127,1.516,0.527,2.029
						c0.4,0.512,1.025,0.769,1.875,0.769c0.811,0,1.499-0.075,2.065-0.228c0.566-0.15,1.274-0.402,2.124-0.754l0.659,3.018
						c-0.723,0.508-1.629,0.93-2.717,1.268C212.949,24.821,211.814,24.99,210.633,24.99z M212.303,12.349
						c-0.596,0-1.082,0.254-1.457,0.762c-0.377,0.508-0.662,1.187-0.857,2.036l0.044,0.073h3.486l0.073-0.381
						c0.127-0.84,0.093-1.465-0.103-1.875S212.898,12.349,212.303,12.349z"/>
				</g>
				<g>
					<path d="M220.123,16.494c0.518-2.637,1.359-4.622,2.527-5.954c1.166-1.334,2.683-2,4.548-2c0.635,0,1.221,0.146,1.758,0.439
						s1.001,0.703,1.392,1.23l1.67-8.379h4.893l-4.57,22.852h-4.233l0.029-1.597c-0.557,0.615-1.147,1.087-1.772,1.413
						c-0.625,0.327-1.265,0.491-1.919,0.491c-1.699,0-2.972-0.786-3.815-2.358c-0.846-1.572-1.033-3.516-0.564-5.83L220.123,16.494z
						 M224.972,16.802c-0.293,1.426-0.366,2.512-0.22,3.26c0.146,0.746,0.61,1.12,1.392,1.12c0.4,0,0.801-0.127,1.201-0.381
						s0.767-0.605,1.099-1.055l1.304-6.562c-0.156-0.283-0.378-0.493-0.667-0.63c-0.287-0.137-0.637-0.205-1.047-0.205
						c-0.713,0-1.33,0.373-1.854,1.121c-0.521,0.746-0.905,1.755-1.149,3.024L224.972,16.802z"/>
					<path d="M239.151,18.589l-0.044-0.073c0.254-1.318,0.679-2.314,1.274-2.988s1.592-1.46,2.988-2.358
						c0.664-0.41,1.224-0.918,1.677-1.523c0.455-0.605,0.765-1.304,0.931-2.095c0.166-0.869,0.104-1.535-0.183-1.999
						c-0.289-0.464-0.794-0.696-1.517-0.696c-0.518,0-1.021,0.205-1.509,0.615s-0.815,1.001-0.981,1.772h-4.775l-0.029-0.088
						c0.391-2.031,1.315-3.557,2.776-4.578c1.459-1.02,3.22-1.53,5.28-1.53s3.643,0.596,4.746,1.787s1.465,2.764,1.084,4.717
						c-0.264,1.299-0.825,2.437-1.685,3.413s-1.885,1.768-3.076,2.373c-0.664,0.41-1.147,0.853-1.45,1.326s-0.537,1.115-0.703,1.926
						H239.151z M242.696,24.683h-4.834l0.791-3.955h4.834L242.696,24.683z"/>
				</g>
				<g>
					<path d="M10.061,19.712l0.02,0.059c-0.397,1.497-1.048,2.661-1.953,3.491s-2.106,1.245-3.604,1.245
						c-1.471,0-2.655-0.583-3.55-1.748s-1.173-2.591-0.835-4.277l0.537-2.695c0.371-1.875,1.078-3.328,2.119-4.36
						s2.331-1.548,3.867-1.548c1.465,0,2.612,0.457,3.442,1.372s1.154,2.111,0.972,3.589l-0.02,0.049H8.782
						c0.091-0.977-0.054-1.738-0.435-2.285s-1.024-0.82-1.929-0.82c-0.801,0-1.51,0.374-2.129,1.122s-1.042,1.701-1.27,2.858
						l-0.547,2.713c-0.248,1.235-0.163,2.232,0.254,2.99s1.087,1.137,2.012,1.137c0.801,0,1.437-0.235,1.909-0.705
						c0.472-0.471,0.861-1.199,1.167-2.186H10.061z"/>
					<path d="M17.235,24.302c-0.026-0.222-0.041-0.439-0.044-0.654s0.005-0.43,0.024-0.645c-0.404,0.437-0.868,0.796-1.392,1.079
						s-1.066,0.425-1.626,0.425c-0.931,0-1.632-0.291-2.104-0.874s-0.61-1.353-0.415-2.31c0.215-1.087,0.742-1.899,1.582-2.437
						s1.953-0.806,3.34-0.806h1.543l0.186-0.928c0.117-0.586,0.063-1.027-0.161-1.323s-0.61-0.444-1.157-0.444
						c-0.462,0-0.873,0.132-1.23,0.396s-0.576,0.598-0.654,1.001H12.89l-0.02-0.059c0.143-0.886,0.648-1.638,1.514-2.256
						s1.911-0.928,3.135-0.928c1.081,0,1.934,0.319,2.559,0.957s0.824,1.53,0.596,2.676l-0.938,4.697
						c-0.098,0.469-0.158,0.896-0.181,1.279s-0.008,0.769,0.044,1.152H17.235z M15.097,22.603c0.43,0,0.869-0.117,1.318-0.352
						s0.804-0.518,1.064-0.85l0.371-1.836h-1.582c-0.56,0-1.051,0.173-1.475,0.518s-0.68,0.745-0.771,1.201
						c-0.091,0.43-0.047,0.757,0.132,0.981S14.647,22.603,15.097,22.603z"/>
					<path d="M25.943,15.142c0.423-0.515,0.903-0.91,1.44-1.187s1.105-0.415,1.704-0.415c0.957,0,1.67,0.34,2.139,1.021
						s0.566,1.714,0.293,3.101l-1.328,6.641h-2.334l1.328-6.621c0.163-0.847,0.135-1.424-0.083-1.733s-0.64-0.464-1.265-0.464
						c-0.384,0-0.762,0.104-1.133,0.312s-0.703,0.495-0.996,0.859l-1.523,7.646h-2.334l2.109-10.566H26.1L25.943,15.142z"/>
					<path d="M42.021,20.063l0.01,0.869l0.059,0.01l3.506-7.207h2.559L41.68,25.903c-0.41,0.729-0.907,1.355-1.489,1.88
						s-1.31,0.786-2.183,0.786c-0.176,0-0.371-0.021-0.586-0.063s-0.417-0.086-0.605-0.132l0.625-1.836
						c0.078,0.007,0.187,0.017,0.327,0.029s0.249,0.02,0.327,0.02c0.358,0,0.7-0.158,1.025-0.474s0.58-0.643,0.762-0.981
						l0.547-0.947l-1.465-10.449h2.549L42.021,20.063z"/>
					<path d="M48.196,18.921c0.26-1.634,0.866-2.939,1.816-3.916s2.135-1.465,3.555-1.465c1.361,0,2.376,0.508,3.047,1.523
						s0.882,2.302,0.635,3.857l-0.029,0.205c-0.267,1.647-0.874,2.956-1.821,3.926s-2.134,1.455-3.56,1.455
						c-1.361,0-2.376-0.506-3.047-1.519s-0.879-2.3-0.625-3.862L48.196,18.921z M50.501,19.121
						c-0.176,1.072-0.137,1.921,0.117,2.545s0.762,0.937,1.523,0.937c0.709,0,1.304-0.327,1.782-0.98s0.799-1.486,0.962-2.501
						l0.029-0.205c0.163-1.053,0.117-1.895-0.137-2.525s-0.758-0.946-1.514-0.946c-0.709,0-1.304,0.33-1.782,0.99
						c-0.479,0.659-0.796,1.487-0.952,2.481L50.501,19.121z"/>
					<path d="M64.776,24.302l0.127-1.338c-0.41,0.508-0.874,0.892-1.392,1.152s-1.083,0.391-1.694,0.391
						c-0.996,0-1.735-0.368-2.217-1.104s-0.57-1.853-0.264-3.35l1.26-6.318h2.324l-1.26,6.338c-0.202,0.989-0.21,1.653-0.024,1.992
						s0.558,0.508,1.118,0.508c0.475,0,0.913-0.105,1.313-0.317s0.744-0.513,1.03-0.903l1.523-7.617h2.334l-2.109,10.566H64.776z"/>
					<path d="M80.405,24.302c-0.026-0.222-0.041-0.439-0.044-0.654s0.005-0.43,0.024-0.645c-0.404,0.437-0.868,0.796-1.392,1.079
						s-1.066,0.425-1.626,0.425c-0.931,0-1.632-0.291-2.104-0.874s-0.61-1.353-0.415-2.31c0.215-1.087,0.742-1.899,1.582-2.437
						s1.953-0.806,3.34-0.806h1.543l0.186-0.928c0.117-0.586,0.063-1.027-0.161-1.323s-0.61-0.444-1.157-0.444
						c-0.462,0-0.873,0.132-1.23,0.396s-0.576,0.598-0.654,1.001h-2.236l-0.02-0.059c0.143-0.886,0.648-1.638,1.514-2.256
						s1.911-0.928,3.135-0.928c1.081,0,1.934,0.319,2.559,0.957s0.824,1.53,0.596,2.676l-0.938,4.697
						c-0.098,0.469-0.158,0.896-0.181,1.279s-0.008,0.769,0.044,1.152H80.405z M78.266,22.603c0.43,0,0.869-0.117,1.318-0.352
						s0.804-0.518,1.064-0.85l0.371-1.836h-1.582c-0.56,0-1.051,0.173-1.475,0.518s-0.68,0.745-0.771,1.201
						c-0.091,0.43-0.047,0.757,0.132,0.981S77.817,22.603,78.266,22.603z"/>
					<path d="M85.821,24.302l1.758-8.809h-1.484l0.352-1.758h1.484l0.254-1.23c0.241-1.237,0.716-2.153,1.426-2.749
						s1.615-0.894,2.715-0.894c0.208,0,0.423,0.02,0.645,0.059s0.459,0.088,0.713,0.146l-0.596,1.836
						c-0.111-0.026-0.239-0.049-0.386-0.068s-0.304-0.029-0.474-0.029c-0.436,0-0.804,0.148-1.104,0.444s-0.501,0.715-0.605,1.255
						l-0.254,1.23h1.953l-0.352,1.758h-1.953l-1.758,8.809H85.821z"/>
					<path d="M92.801,24.302l1.758-8.809h-1.484l0.352-1.758h1.484l0.254-1.23c0.241-1.237,0.716-2.153,1.426-2.749
						s1.615-0.894,2.715-0.894c0.208,0,0.423,0.02,0.645,0.059s0.459,0.088,0.713,0.146l-0.596,1.836
						c-0.111-0.026-0.239-0.049-0.386-0.068s-0.304-0.029-0.474-0.029c-0.436,0-0.804,0.148-1.104,0.444s-0.501,0.715-0.605,1.255
						l-0.254,1.23h1.953l-0.352,1.758h-1.953l-1.758,8.809H92.801z"/>
					<path d="M99.625,18.921c0.26-1.634,0.866-2.939,1.816-3.916s2.135-1.465,3.555-1.465c1.361,0,2.376,0.508,3.047,1.523
						s0.882,2.302,0.635,3.857l-0.029,0.205c-0.267,1.647-0.874,2.956-1.821,3.926s-2.134,1.455-3.56,1.455
						c-1.361,0-2.376-0.506-3.047-1.519s-0.879-2.3-0.625-3.862L99.625,18.921z M101.929,19.121
						c-0.176,1.072-0.137,1.921,0.117,2.545s0.762,0.937,1.523,0.937c0.709,0,1.304-0.327,1.782-0.98s0.799-1.486,0.962-2.501
						l0.029-0.205c0.163-1.053,0.117-1.895-0.137-2.525s-0.758-0.946-1.514-0.946c-0.709,0-1.304,0.33-1.782,0.99
						c-0.479,0.659-0.796,1.487-0.952,2.481L101.929,19.121z"/>
					<path d="M116.692,15.903l-1.074-0.039c-0.384,0-0.732,0.098-1.045,0.293s-0.583,0.469-0.811,0.82l-1.465,7.324h-2.334
						l2.109-10.566h2.139l-0.137,1.396c0.345-0.508,0.734-0.9,1.167-1.177s0.897-0.415,1.392-0.415c0.13,0,0.272,0.012,0.425,0.034
						s0.272,0.051,0.356,0.083L116.692,15.903z"/>
					<path d="M117.476,18.97c0.358-1.797,0.931-3.151,1.719-4.062s1.8-1.367,3.037-1.367c0.501,0,0.958,0.107,1.372,0.322
						s0.757,0.518,1.03,0.908l1.143-5.703h2.334l-3.047,15.234h-2.012l0.059-1.045c-0.384,0.41-0.806,0.721-1.265,0.933
						s-0.942,0.317-1.45,0.317c-1.133,0-1.984-0.513-2.554-1.538s-0.705-2.29-0.405-3.794L117.476,18.97z M119.78,19.175
						c-0.208,1.042-0.192,1.868,0.049,2.48s0.736,0.918,1.484,0.918c0.391,0,0.757-0.115,1.099-0.347s0.653-0.555,0.933-0.972
						l0.928-4.678c-0.143-0.345-0.363-0.613-0.659-0.806s-0.659-0.288-1.089-0.288c-0.684,0-1.251,0.314-1.704,0.942
						s-0.786,1.477-1.001,2.544L119.78,19.175z"/>
					<path d="M138.368,11.167l-0.518,2.568h1.748l-0.352,1.758h-1.748l-1.162,5.84c-0.098,0.469-0.079,0.788,0.054,0.957
						s0.344,0.254,0.63,0.254c0.156,0,0.325-0.012,0.508-0.034s0.345-0.054,0.488-0.093l-0.107,1.738
						c-0.247,0.11-0.536,0.197-0.864,0.259s-0.669,0.093-1.021,0.093c-0.774,0-1.36-0.261-1.758-0.781s-0.485-1.318-0.264-2.393
						l1.162-5.84h-1.475l0.352-1.758h1.475l0.518-2.568H138.368z"/>
				</g>
				<g>
					<path d="M140.643,18.921c0.26-1.634,0.865-2.939,1.816-3.916c0.95-0.977,2.135-1.465,3.555-1.465
						c1.36,0,2.376,0.508,3.047,1.523c0.67,1.016,0.882,2.302,0.635,3.857l-0.029,0.205c-0.268,1.647-0.875,2.956-1.822,3.926
						s-2.133,1.455-3.559,1.455c-1.361,0-2.377-0.506-3.047-1.519c-0.671-1.013-0.879-2.3-0.625-3.862L140.643,18.921z
						 M142.947,19.121c-0.176,1.072-0.137,1.921,0.117,2.545s0.762,0.937,1.523,0.937c0.709,0,1.303-0.327,1.781-0.98
						s0.8-1.486,0.963-2.501l0.029-0.205c0.162-1.053,0.117-1.895-0.137-2.525s-0.759-0.946-1.514-0.946
						c-0.71,0-1.305,0.33-1.783,0.99c-0.479,0.659-0.795,1.487-0.951,2.481L142.947,19.121z"/>
				</g>
			</g>
		</g>
	</g>
</g>
</svg>
